<svg height="512" viewBox="0 0 512 512" width="512" xmlns="http://www.w3.org/2000/svg"><g id="Layer_10" data-name="Layer 10"><path d="m400 112v356a19.994 19.994 0 0 1 -20 20h-248a19.994 19.994 0 0 1 -20-20v-356z" fill="#ea9d2d"/><path d="m352 272a95.978 95.978 0 1 1 -42.38-79.64 96.518 96.518 0 0 1 18.38 16.15 95.727 95.727 0 0 1 16 25.07c.49 1.1.95 2.22 1.39 3.34a95.723 95.723 0 0 1 6.61 35.08z" fill="#e4e4e2"/><path d="m336 112h-16v-78a2 2 0 0 0 -2-2h-124a2 2 0 0 0 -2 2v78h-16v-78a18.021 18.021 0 0 1 18-18h124a18.021 18.021 0 0 1 18 18z" fill="#c38325"/><path d="m200 216v16a23.91 23.91 0 0 1 -8 17.88v93.67a95.994 95.994 0 0 1 1.26-144.21 23.913 23.913 0 0 1 6.74 16.66z" fill="#cbcbcb"/><circle cx="256" cy="272" fill="#b3e4e8" r="40"/><path d="m400 416v52a19.994 19.994 0 0 1 -20 20h-248c-.61 0-1.22-.03-1.81-.08a20.015 20.015 0 0 1 -18.19-19.92v-52z" fill="#8f563b"/><path d="m168 192a24 24 0 0 0 -24 24v16a23.934 23.934 0 0 0 8 17.884v94.116a16 16 0 0 0 32 0v-94.116a23.934 23.934 0 0 0 8-17.884v-16a24 24 0 0 0 -24-24z" fill="#dbdbdb"/><path d="m368 192a8 8 0 0 0 -8 8v24a16 16 0 0 1 -8 13.835v-45.835a8 8 0 0 0 -16 0v45.835a16 16 0 0 1 -8-13.835v-24a8 8 0 0 0 -16 0v24a32.012 32.012 0 0 0 16 27.7v92.3a16 16 0 0 0 32 0v-92.3a32.012 32.012 0 0 0 16-27.7v-24a8 8 0 0 0 -8-8z" fill="#dbdbdb"/><g fill="#744630"><path d="m186.14 416-55.95 71.92a19.948 19.948 0 0 1 -14.14-7.86l49.82-64.06z"/><path d="m234.14 416-56.01 72h-20.26l56-72z"/><path d="m282.14 416-56.01 72h-20.27l56.01-72z"/><path d="m330.14 416-56 72h-20.27l56-72z"/><path d="m378.14 416-56 72h-20.27l56-72z"/></g><path d="m176 94.723h16v17.277h-16z" fill="#ac7421"/><path d="m320 94.723h16v17.277h-16z" fill="#ac7421"/><path d="m132 496h248a28.032 28.032 0 0 0 28-28v-356a8 8 0 0 0 -8-8h-64v-70a18.021 18.021 0 0 0 -18-18h-124a18.021 18.021 0 0 0 -18 18v70h-64a8 8 0 0 0 -8 8v356a28.032 28.032 0 0 0 28 28zm171.643-72-43.556 56h-27.73l43.556-56zm-91.556 56h-27.73l43.556-56h27.73zm-48 0h-27.73l43.556-56h27.73zm-42.818-6.662a11.9 11.9 0 0 1 -1.269-5.338v-44h39.643zm258.731 6.662h-51.643l43.556-56h20.087v44a12.013 12.013 0 0 1 -12 12zm-188-446a2 2 0 0 1 2-2h124a2 2 0 0 1 2 2v70h-128zm200 86v288h-48v16h7.643l-43.556 56h-27.73l43.556-56h4.087v-16h-208v-288z"/><path d="m144 344a24 24 0 0 0 46.374 8.667 103.956 103.956 0 0 0 131.242.008 24 24 0 0 0 46.384-8.675v-98.846a31.791 31.791 0 0 0 8-21.154v-24a8 8 0 0 0 -16 0v24a15.929 15.929 0 0 1 -4.648 11.275c-.209.2-.419.408-.692.648s-.564.472-.853.7q-.846-2.339-1.807-4.631v-39.992a8 8 0 0 0 -16 0v13.578a104.028 104.028 0 0 0 -9.153-9.7 8.018 8.018 0 0 0 -3.628-3.2 103.933 103.933 0 0 0 -133.881-.5 31.979 31.979 0 0 0 -53.338 23.822v16a31.94 31.94 0 0 0 8 21.161zm208 0a8 8 0 1 1 -16 0v-89.014c.082.021.167.035.25.056.527.131 1.057.251 1.592.356l.156.032a31.9 31.9 0 0 0 12.018 0l.09-.019c.567-.11 1.129-.237 1.688-.377.068-.017.138-.029.206-.046zm-16-108.692v2.531a15.932 15.932 0 0 1 -8-13.839v-2.572a88.167 88.167 0 0 1 8 13.88zm-24-31.176v19.868a32.018 32.018 0 0 0 8 21.147v87.236a87.966 87.966 0 0 1 -128 0v-79.224a32.043 32.043 0 0 0 8-21.159v-16a31.843 31.843 0 0 0 -1.738-10.381 87.931 87.931 0 0 1 113.738-1.487zm-160 11.868a16 16 0 0 1 32 0v16a16.023 16.023 0 0 1 -5.336 11.923 8 8 0 0 0 -2.664 5.961v94.116a8 8 0 0 1 -16 0v-94.116a8 8 0 0 0 -2.664-5.961 16.269 16.269 0 0 1 -1.26-1.259 15.96 15.96 0 0 1 -4.076-10.664z"/><path d="m256 320a48 48 0 1 0 -48-48 48.055 48.055 0 0 0 48 48zm0-80a32 32 0 1 1 -32 32 32.036 32.036 0 0 1 32-32z"/></g></svg>