<svg height="512" viewBox="0 0 64 64" width="512" xmlns="http://www.w3.org/2000/svg"><g id="Filled_outline" data-name="Filled outline"><path d="m11 13h42a0 0 0 0 1 0 0v36a2 2 0 0 1 -2 2h-38a2 2 0 0 1 -2-2v-36a0 0 0 0 1 0 0z" fill="#d3843d"/><path d="m44 39h-24a4.029 4.029 0 0 1 -4-3l-5-23h42l-5 23a4.029 4.029 0 0 1 -4 3z" fill="#ad6327"/><path d="m21 39h6v12h-6z" fill="#f9bb4b"/><path d="m37 39h6v12h-6z" fill="#f9bb4b"/><path d="m3 15v25h4v-19h4v-8h-6a2 2 0 0 0 -2 2z" fill="#66342e"/><path d="m3 40h8a0 0 0 0 1 0 0v4a0 0 0 0 1 0 0h-4a4 4 0 0 1 -4-4 0 0 0 0 1 0 0z" fill="#995f5b"/><path d="m61 15v25h-4v-19h-4v-8h6a2 2 0 0 1 2 2z" fill="#66342e"/><path d="m57 40h4a0 0 0 0 1 0 0v4a0 0 0 0 1 0 0h-8a0 0 0 0 1 0 0 4 4 0 0 1 4-4z" fill="#995f5b" transform="matrix(-1 0 0 -1 114 84)"/><rect fill="#fcf05a" height="4" rx="2" width="10" x="19" y="43"/><rect fill="#fcf05a" height="4" rx="2" width="10" x="35" y="43"/><path d="m59 12h-54a3 3 0 0 0 -3 3v25a5.006 5.006 0 0 0 5 5h3v4a3 3 0 0 0 3 3h38a3 3 0 0 0 3-3v-4h3a5.006 5.006 0 0 0 5-5v-25a3 3 0 0 0 -3-3zm-49 31h-3a3.006 3.006 0 0 1 -2.829-2h5.829zm0-4h-2v-17h2zm0-19h-2v-4h-2v23h-2v-24a1 1 0 0 1 1-1h5zm41.759-6-4.734 21.775a3.047 3.047 0 0 1 -3.025 2.225h-24a3.044 3.044 0 0 1 -3.022-2.213l-4.737-21.787zm-9.759 26v2h-4v-2zm-16 0v2h-4v-2zm-6 10h-7a1 1 0 0 1 -1-1v-26.691l3.025 13.916a5 5 0 0 0 4.975 3.775v2.184a2.982 2.982 0 0 0 0 5.632zm6 0h-4v-2h4zm1-4h-6a1 1 0 0 1 0-2h6a1 1 0 0 1 0 2zm9 4h-8v-2.184a2.982 2.982 0 0 0 0-5.632v-2.184h8v2.184a2.982 2.982 0 0 0 0 5.632zm6 0h-4v-2h4zm1-4h-6a1 1 0 0 1 0-2h6a1 1 0 0 1 0 2zm9 3a1 1 0 0 1 -1 1h-7v-2.184a2.982 2.982 0 0 0 0-5.632v-2.184a5 5 0 0 0 4.978-3.787l3.022-13.903zm2-27h2v17h-2zm3 21h-3v-2h5.829a3.006 3.006 0 0 1 -2.829 2zm3-4h-2v-23h-2v4h-2v-6h5a1 1 0 0 1 1 1z"/><path d="m44.975 35.225 3-13-1.95-.45-2.825 12.225h-4.2v2h5a1 1 0 0 0 .975-.775z"/><path d="m35 34h2v2h-2z"/><path d="m18.977 25.783-1.73-7.783h5.753v-2h-7a1 1 0 0 0 -.977 1.217l2 9z"/></g></svg>