<svg id="Layer_5" enable-background="new 0 0 64 64" height="512" viewBox="0 0 64 64" width="512" xmlns="http://www.w3.org/2000/svg"><g><g><g><path d="m41 4v2h-18v-2c0-1.1.9-2 2-2h14c1.1 0 2 .9 2 2z" fill="#ccd1d9"/></g><g><path d="m62 60c0 1.1-.9 2-2 2h-56c-1.1 0-2-.9-2-2v-4c0 1.1.9 2 2 2h56c1.1 0 2-.9 2-2z" fill="#ccd1d9"/></g><g><path d="m62 55v1c0 1.1-.9 2-2 2h-56c-1.1 0-2-.9-2-2v-1-19c0-1.1.9-2 2-2h4 8 32 8 4c1.1 0 2 .9 2 2z" fill="#e6e9ed"/></g><g><path d="m16 30c1.1 0 2 .9 2 2 0 .55-.22 1.05-.59 1.41-.36.37-.86.59-1.41.59h-8c-1.1 0-2-.9-2-2 0-.55.22-1.05.59-1.41.36-.37.86-.59 1.41-.59z" fill="#aab2bd"/></g><g><path d="m56 30c1.1 0 2 .9 2 2 0 .55-.22 1.05-.59 1.41-.36.37-.86.59-1.41.59h-8c-1.1 0-2-.9-2-2 0-.55.22-1.05.59-1.41.36-.37.86-.59 1.41-.59z" fill="#aab2bd"/></g><g><path d="m8 30h-4c-1.1 0-2-.9-2-2v-20c0-1.1.9-2 2-2h19 18 19c1.1 0 2 .9 2 2v20c0 1.1-.9 2-2 2h-4-8-32z" fill="#e6e9ed"/></g><g><path d="m14 38v8l-7.06-2.65c-.57-.21-.94-.75-.94-1.35s.37-1.14.94-1.35z" fill="#cf9e76"/></g><g><path d="m56.83 39.17c.72.73 1.17 1.73 1.17 2.83 0 2.21-1.79 4-4 4h-4-2v-8h6c1.1 0 2.1.45 2.83 1.17z" fill="#cf9e76"/></g><g><path d="m44 38h4v8h-4z" fill="#ffeaa7"/></g><g><path d="m44 38v8h-24-4-2v-8z" fill="#69d6f4"/></g><g><path d="m20 50v4h-4v-8h4z" fill="#e6e9ed"/></g><g><path d="m16 46v8h-6c-1.1 0-2.1-.45-2.83-1.17-.72-.73-1.17-1.73-1.17-2.83 0-2.21 1.79-4 4-4h4z" fill="#cf9e76"/></g><g><path d="m57.06 48.65c.57.21.94.75.94 1.35s-.37 1.14-.94 1.35l-7.06 2.65v-4-4z" fill="#cf9e76"/></g><g><path d="m20 50h30v4h-30z" fill="#5cd6b3"/></g><g><path d="m50 46v4h-30v-4h24 4z" fill="#ffeaa7"/></g></g><g><path d="m13.818 37-7.232 2.712c-.948.355-1.586 1.275-1.586 2.288s.638 1.933 1.585 2.288l2.279.855c-2.209.517-3.864 2.492-3.864 4.857 0 2.757 2.243 5 5 5h40.182l7.232-2.712c.948-.355 1.586-1.275 1.586-2.288s-.638-1.933-1.585-2.288l-2.279-.855c2.209-.517 3.864-2.492 3.864-4.857 0-2.757-2.243-5-5-5zm7.182 10h28v2h-28zm-6-2v-6h28v6zm4 2v6h-2v-6zm2 4h28v2h-28zm24-6v-6h2v6zm-38-3c0-.184.115-.35.288-.415l5.712-2.142v5.114l-5.713-2.142c-.172-.065-.287-.231-.287-.415zm0 8c0-1.654 1.346-3 3-3h3.818 1.182v6h-5c-1.654 0-3-1.346-3-3zm50 0c0 .184-.115.35-.288.415l-5.712 2.142v-5.114l5.713 2.142c.172.065.287.231.287.415zm0-8c0 1.654-1.346 3-3 3h-3.818-1.182v-6h5c1.654 0 3 1.346 3 3z"/><path d="m63 28v-20c0-1.654-1.346-3-3-3h-18v-1c0-1.654-1.346-3-3-3h-14c-1.654 0-3 1.346-3 3v1h-18c-1.654 0-3 1.346-3 3v20c0 1.654 1.346 3 3 3h1.184c-.112.314-.184.648-.184 1s.072.686.184 1h-1.184c-1.654 0-3 1.346-3 3v19 1 4c0 1.654 1.346 3 3 3h56c1.654 0 3-1.346 3-3v-4-1-19c0-1.654-1.346-3-3-3h-1.184c.112-.314.184-.648.184-1s-.072-.686-.184-1h1.184c1.654 0 3-1.346 3-3zm-39-24c0-.551.448-1 1-1h14c.552 0 1 .449 1 1v1h-16zm-21 24v-20c0-.551.448-1 1-1h56c.552 0 1 .449 1 1v20c0 .551-.448 1-1 1h-4-8-32-8-4c-.552 0-1-.449-1-1zm42.184 3c-.112.314-.184.648-.184 1s.072.686.184 1h-26.368c.112-.314.184-.648.184-1s-.072-.686-.184-1zm-38.184 1c0-.551.448-1 1-1h8c.552 0 1 .449 1 1s-.448 1-1 1h-8c-.552 0-1-.449-1-1zm53 29h-56c-.552 0-1-.449-1-1v-1.184c.314.112.648.184 1 .184h56c.352 0 .686-.072 1-.184v1.184c0 .551-.448 1-1 1zm1-25v19 1c0 .551-.448 1-1 1h-56c-.552 0-1-.449-1-1v-1-19c0-.551.448-1 1-1h4 8 32 8 4c.552 0 1 .449 1 1zm-4-4c0 .551-.448 1-1 1h-8c-.552 0-1-.449-1-1s.448-1 1-1h8c.552 0 1 .449 1 1z"/><path d="m57 13h2v-4h-8v2h6z"/><path d="m57 15h2v2h-2z"/><path d="m5 21h2v2h-2z"/><path d="m5 25h2v2h-2z"/><path d="m5 17h2v2h-2z"/></g></g></svg>