<?xml version="1.0" encoding="iso-8859-1"?>
<!-- Generator: Adobe Illustrator 19.0.0, SVG Export Plug-In . SVG Version: 6.00 Build 0)  -->
<svg version="1.1" id="Capa_1" xmlns="http://www.w3.org/2000/svg" xmlns:xlink="http://www.w3.org/1999/xlink" x="0px" y="0px"
	 viewBox="0 0 512 512" style="enable-background:new 0 0 512 512;" xml:space="preserve">
<path style="fill:#9BFC1D;" d="M59.801,407.359L390.357,76.803l69.361,69.361L129.162,476.72c-19.153,19.153-50.208,19.153-69.361,0
	l0,0C40.649,457.569,40.649,426.512,59.801,407.359z"/>
<path d="M94.483,500.893c-15.722,0-30.501-6.121-41.618-17.238c-11.117-11.112-17.238-25.892-17.238-41.613
	s6.121-30.501,17.235-41.618c0.002,0,0.002,0,0.002,0L383.421,69.87c3.831-3.831,10.039-3.831,13.871,0l69.364,69.359
	c1.839,1.839,2.874,4.335,2.874,6.936s-1.034,5.097-2.874,6.936L136.098,483.655C124.984,494.772,110.205,500.893,94.483,500.893z
	 M66.736,414.296c-7.41,7.41-11.49,17.267-11.49,27.746c0,10.479,4.081,20.332,11.49,27.742c7.412,7.41,17.264,11.49,27.746,11.49
	c10.48,0,20.332-4.081,27.742-11.49l323.625-323.62l-55.493-55.486L66.736,414.296z"/>
<polygon style="fill:#99783D;" points="487.464,49.058 390.357,76.803 459.718,146.164 "/>
<path d="M459.721,155.973c-2.567,0-5.073-1.011-6.936-2.874L383.421,83.74c-2.457-2.457-3.435-6.031-2.562-9.394
	c0.871-3.365,3.462-6.019,6.801-6.971l97.106-27.746c3.434-0.975,7.118-0.022,9.632,2.496c2.519,2.516,3.477,6.206,2.496,9.629
	l-27.742,97.106c-0.953,3.343-3.607,5.93-6.968,6.801C461.368,155.87,460.54,155.973,459.721,155.973z M409.08,81.656l45.789,45.782
	l18.31-64.098L409.08,81.656z"/>
<path d="M94.483,437.981c-2.509,0-5.02-0.958-6.936-2.874c-3.831-3.831-3.831-10.039,0-13.871l295.874-295.877
	c3.831-3.831,10.039-3.831,13.871,0c3.831,3.829,3.831,10.042,0,13.871L101.418,435.106
	C99.505,437.023,96.992,437.981,94.483,437.981z"/>
<path style="fill:#777777;" d="M487.998,446.279l-55.912,55.912L9.809,79.914l55.912-55.912c18.921-18.921,49.596-18.921,68.518,0
	l353.76,353.76C506.921,396.678,506.921,427.356,487.998,446.279z"/>
<path d="M432.085,512c-2.601,0-5.097-1.034-6.936-2.874L2.874,86.848c-3.831-3.829-3.831-10.042,0-13.871l55.911-55.912
	C69.79,6.061,84.42,0,99.979,0c15.561,0,30.191,6.061,41.196,17.066l353.76,353.76C505.941,381.827,512,396.455,512,412.016
	c0,15.566-6.059,30.194-17.065,41.196l-55.915,55.915C437.18,510.966,434.685,512,432.085,512z M23.682,79.913L432.085,488.32
	l48.979-48.979l0,0c7.3-7.3,11.318-17.003,11.318-27.325c0-10.316-4.018-20.021-11.318-27.32l-353.76-353.76
	c-15.066-15.061-39.577-15.061-54.648,0L23.682,79.913z"/>
<path d="M68.356,144.454c-2.509,0-5.02-0.958-6.936-2.874c-3.831-3.829-3.831-10.042,0-13.871l41.615-41.618
	c3.826-3.831,10.039-3.831,13.871,0c3.831,3.829,3.831,10.042,0,13.871L75.29,141.58C73.378,143.496,70.865,144.454,68.356,144.454z
	"/>
<path d="M116.905,193.009c-2.509,0-5.022-0.958-6.936-2.874c-3.831-3.831-3.831-10.042,0-13.871l41.62-41.615
	c3.831-3.831,10.044-3.831,13.871,0c3.831,3.831,3.831,10.042,0,13.871l-41.62,41.615
	C121.925,192.051,119.416,193.009,116.905,193.009z"/>
<path d="M165.46,241.559c-2.509,0-5.022-0.958-6.936-2.874c-3.831-3.829-3.831-10.042,0-13.871l41.618-41.615
	c3.826-3.831,10.044-3.831,13.871,0c3.831,3.829,3.831,10.042,0,13.871l-41.618,41.615
	C170.482,240.602,167.971,241.559,165.46,241.559z"/>
<path d="M214.011,290.115c-2.509,0-5.022-0.958-6.938-2.874c-3.829-3.831-3.829-10.044,0.002-13.871l41.622-41.618
	c3.831-3.826,10.039-3.829,13.871,0.002c3.831,3.831,3.831,10.042,0,13.873l-41.622,41.613
	C219.031,289.157,216.521,290.115,214.011,290.115z"/>
<path d="M262.568,338.667c-2.509,0-5.02-0.958-6.936-2.874c-3.831-3.831-3.831-10.039,0-13.871l41.613-41.618
	c3.831-3.831,10.039-3.831,13.871,0c3.831,3.831,3.831,10.039,0,13.871l-41.613,41.618
	C267.588,337.709,265.079,338.667,262.568,338.667z"/>
<path d="M311.117,387.221c-2.509,0-5.02-0.958-6.936-2.874c-3.831-3.831-3.831-10.044,0-13.871l41.622-41.613
	c3.831-3.831,10.039-3.831,13.871,0c3.831,3.831,3.831,10.044,0,13.871l-41.622,41.613
	C316.137,386.262,313.626,387.221,311.117,387.221z"/>
<path d="M359.674,435.773c-2.509,0-5.02-0.958-6.936-2.874c-3.831-3.831-3.831-10.039,0-13.871l41.618-41.618
	c3.831-3.831,10.039-3.831,13.871,0c3.831,3.831,3.831,10.039,0,13.871l-41.618,41.618
	C364.694,434.815,362.183,435.773,359.674,435.773z"/>
<g>
</g>
<g>
</g>
<g>
</g>
<g>
</g>
<g>
</g>
<g>
</g>
<g>
</g>
<g>
</g>
<g>
</g>
<g>
</g>
<g>
</g>
<g>
</g>
<g>
</g>
<g>
</g>
<g>
</g>
</svg>
