<?xml version="1.0" encoding="iso-8859-1"?>
<!-- Generator: Adobe Illustrator 19.0.0, SVG Export Plug-In . SVG Version: 6.00 Build 0)  -->
<svg version="1.1" id="Capa_1" xmlns="http://www.w3.org/2000/svg" xmlns:xlink="http://www.w3.org/1999/xlink" x="0px" y="0px"
	 viewBox="0 0 512 512" style="enable-background:new 0 0 512 512;" xml:space="preserve">
<path style="fill:#25D675;" d="M153.22,114.201h137.041V76.134c0-37.843-30.678-68.52-68.52-68.52l0,0
	c-37.843,0-68.52,30.678-68.52,68.52L153.22,114.201L153.22,114.201z"/>
<path style="fill:#1CA158;" d="M238.87,9.772c-5.476-1.409-11.215-2.158-17.13-2.158l0,0c-37.843,0-68.52,30.678-68.52,68.52v38.067
	h34.26V76.134C187.48,44.206,209.316,17.379,238.87,9.772z"/>
<rect x="153.222" y="89.452" style="fill:#FFFFFF;" width="138.939" height="24.743"/>
<path style="fill:#A6A6A5;" d="M301.517,504.387H141.961c-10.602,0-19.196-8.594-19.196-19.196V177.174
	c0-10.602,8.594-19.196,19.196-19.196h159.556c10.602,0,19.196,8.594,19.196,19.196v308.017
	C320.714,495.793,312.119,504.387,301.517,504.387z"/>
<path style="fill:#6A6A69;" d="M153.22,209.53c0-10.602,8.594-19.196,19.196-19.196h148.299v-13.161
	c0-10.602-8.594-19.196-19.196-19.196H141.962c-10.602,0-19.196,8.594-19.196,19.196v308.017c0,10.602,8.594,19.196,19.196,19.196
	h11.258L153.22,209.53L153.22,209.53z"/>
<rect x="124.667" y="380.669" style="fill:#FFFFFF;" width="196.04" height="28.545"/>
<path style="fill:#25D675;" d="M300.244,504.387H141.332c-12.356,0-22.372-10.016-22.372-22.372v-68.988h203.658v68.988
	C322.618,494.37,312.6,504.387,300.244,504.387z"/>
<g>
	<path style="fill:#1CA158;" d="M302.22,502.483H139.356c-10.214,0-18.494-8.28-18.494-18.494v-4.346h199.851v4.346
		C320.714,494.203,312.434,502.483,302.22,502.483z"/>
	<path style="fill:#1CA158;" d="M153.22,482.013v-68.987h-34.26v68.987c0,12.356,10.016,22.373,22.372,22.373h34.26
		C163.236,504.387,153.22,494.37,153.22,482.013z"/>
</g>
<path d="M335.941,319.762v-15.227c25.188,0,45.68-20.492,45.68-45.68v-68.52c0-25.188-20.492-45.68-45.68-45.68H137.993v-15.227
	h197.948c33.584,0,60.907,27.323,60.907,60.907v68.52C396.848,292.439,369.524,319.762,335.941,319.762z"/>
<rect x="259.809" y="83.747" width="15.227" height="15.227"/>
<path d="M301.517,150.364H141.961c-14.783,0-26.809,12.027-26.809,26.809v308.017c0,14.783,12.027,26.809,26.809,26.809h159.556
	c14.783,0,26.809-12.027,26.809-26.809V177.174C328.328,162.391,316.301,150.364,301.517,150.364z M313.101,403.509H130.38v-15.227
	h182.721V403.509z M141.962,165.591h159.556c6.387,0,11.583,5.196,11.583,11.583v195.882H130.38V177.174
	C130.38,170.787,135.575,165.591,141.962,165.591z M301.517,496.773H141.961c-6.387,0-11.583-5.196-11.583-11.582v-66.455H313.1
	v66.455C313.101,491.577,307.905,496.773,301.517,496.773z"/>
<path d="M297.874,76.134C297.874,34.154,263.72,0,221.74,0s-76.134,34.154-76.134,76.134v45.68h152.268V76.134z M282.647,106.587
	H160.833v-7.613h91.361V83.747h-91.361v-7.613c0-33.584,27.323-60.907,60.907-60.907s60.907,27.323,60.907,60.907V106.587z"/>
<g>
	<path style="fill:#FFFFFF;" d="M160.833,255.048h-15.227V209.53c0-14.783,12.027-26.809,26.809-26.809h16.968v15.227h-16.968
		c-6.387,0-11.582,5.196-11.582,11.582V255.048z"/>
	<rect x="145.608" y="268.367" style="fill:#FFFFFF;" width="15.227" height="44.454"/>
	<rect x="145.608" y="328.056" style="fill:#FFFFFF;" width="15.227" height="22.163"/>
	<rect x="145.608" y="472.03" style="fill:#FFFFFF;" width="152.268" height="15.227"/>
</g>
<g>
</g>
<g>
</g>
<g>
</g>
<g>
</g>
<g>
</g>
<g>
</g>
<g>
</g>
<g>
</g>
<g>
</g>
<g>
</g>
<g>
</g>
<g>
</g>
<g>
</g>
<g>
</g>
<g>
</g>
</svg>
