<?xml version="1.0" encoding="iso-8859-1"?>
<!-- Generator: Adobe Illustrator 19.0.0, SVG Export Plug-In . SVG Version: 6.00 Build 0)  -->
<svg version="1.1" id="Capa_1" xmlns="http://www.w3.org/2000/svg" xmlns:xlink="http://www.w3.org/1999/xlink" x="0px" y="0px"
	 viewBox="0 0 480 480" style="enable-background:new 0 0 480 480;" xml:space="preserve">
<path style="fill:#F40E34;" d="M152,472h-48c-26.51,0-48-21.49-48-48v-88h144v88C200,450.51,178.51,472,152,472z"/>
<path style="fill:#A6001E;" d="M168,336v88c0,26.51-21.49,48-48,48h32c26.51,0,48-21.49,48-48v-88H168z"/>
<rect x="56" y="336" style="fill:#5AAAE7;" width="144" height="48"/>
<rect x="280" y="144" style="fill:#EBE5DD;" width="144" height="328"/>
<polygon style="fill:#D4C8B8;" points="392,144 392,440 280,440 280,472 392,472 424,472 424,440 424,144 "/>
<path style="fill:#F40E34;" d="M376,8h-48c-26.51,0-48,21.49-48,48v88h144V56C424,29.49,402.51,8,376,8z"/>
<path style="fill:#A6001E;" d="M376,8h-32c26.51,0,48,21.49,48,48v88h32V56C424,29.49,402.51,8,376,8z"/>
<rect x="8" y="336" style="fill:#1E81CE;" width="48" height="48"/>
<g>
	<path style="fill:#5AAAE7;" d="M192,312h-16v-8c0-4.41-3.586-8-8-8c-13.234,0-24-10.766-24-24v-24h16v24c0,4.41,3.586,8,8,8
		c13.234,0,24,10.766,24,24V312z"/>
	<path style="fill:#5AAAE7;" d="M144,312h-16v-8c0-4.41-3.586-8-8-8c-13.234,0-24-10.766-24-24v-24h16v24c0,4.41,3.586,8,8,8
		c13.234,0,24,10.766,24,24V312z"/>
	<path style="fill:#5AAAE7;" d="M96,312H80v-8c0-4.41-3.586-8-8-8c-13.234,0-24-10.766-24-24v-24h16v24c0,4.41,3.586,8,8,8
		c13.234,0,24,10.766,24,24V312z"/>
</g>
<rect x="24" y="352" style="fill:#F40E34;" width="16" height="16"/>
<rect x="424" y="144" style="fill:#313DD1;" width="48" height="48"/>
<rect x="440" y="160" style="fill:#161E81;" width="16" height="16"/>
<g>
	<rect x="304" y="432" style="fill:#FFFFFF;" width="16" height="16"/>
	<rect x="304" y="312" style="fill:#FFFFFF;" width="16" height="104"/>
	<rect x="304" y="104" style="fill:#FFFFFF;" width="16" height="16"/>
	<path style="fill:#FFFFFF;" d="M320,88h-16V48c0-13.234,10.766-24,24-24v16c-4.414,0-8,3.59-8,8V88z"/>
	<rect x="80" y="360" style="fill:#FFFFFF;" width="16" height="56"/>
	<rect x="80" y="432" style="fill:#FFFFFF;" width="16" height="16"/>
</g>
<rect x="280" y="144" style="fill:#5AAAE7;" width="144" height="48"/>
<g>
	<rect x="392" y="144" style="fill:#1E81CE;" width="32" height="48"/>
	<rect x="168" y="336" style="fill:#1E81CE;" width="32" height="48"/>
</g>
<path d="M200,328H56H8c-4.422,0-8,3.582-8,8v48c0,4.418,3.578,8,8,8h40v32c0,30.879,25.125,56,56,56h48c30.875,0,56-25.121,56-56
	v-88C208,331.582,204.422,328,200,328z M16,376v-32h32v32H16z M192,424c0,22.055-17.945,40-40,40h-48c-22.055,0-40-17.945-40-40v-80
	h128V424z"/>
<path d="M472,136h-40V56c0-30.879-25.125-56-56-56h-48c-30.875,0-56,25.121-56,56v88v328c0,4.418,3.578,8,8,8h144
	c4.422,0,8-3.582,8-8V200h40c4.422,0,8-3.582,8-8v-48C480,139.582,476.422,136,472,136z M288,152h128v32H288V152z M288,56
	c0-22.055,17.945-40,40-40h48c22.055,0,40,17.945,40,40v80H288V56z M416,464H288V200h128V464z M464,184h-32v-32h32V184z"/>
<rect x="440" y="160" width="16" height="16"/>
<path d="M168,296c4.414,0,8,3.59,8,8v8h16v-8c0-13.234-10.766-24-24-24c-4.414,0-8-3.59-8-8v-24h-16v24
	C144,285.234,154.766,296,168,296z"/>
<path d="M120,296c4.414,0,8,3.59,8,8v8h16v-8c0-13.234-10.766-24-24-24c-4.414,0-8-3.59-8-8v-24H96v24
	C96,285.234,106.766,296,120,296z"/>
<path d="M72,296c4.414,0,8,3.59,8,8v8h16v-8c0-13.234-10.766-24-24-24c-4.414,0-8-3.59-8-8v-24H48v24C48,285.234,58.766,296,72,296z
	"/>
<rect x="24" y="352" width="16" height="16"/>
<rect x="304" y="432" width="16" height="16"/>
<rect x="304" y="312" width="16" height="104"/>
<rect x="304" y="104" width="16" height="16"/>
<path d="M304,48v40h16V48c0-4.41,3.586-8,8-8V24C314.766,24,304,34.766,304,48z"/>
<rect x="80" y="360" width="16" height="56"/>
<rect x="80" y="432" width="16" height="16"/>
<g>
</g>
<g>
</g>
<g>
</g>
<g>
</g>
<g>
</g>
<g>
</g>
<g>
</g>
<g>
</g>
<g>
</g>
<g>
</g>
<g>
</g>
<g>
</g>
<g>
</g>
<g>
</g>
<g>
</g>
</svg>
